<svg xmlns="http://www.w3.org/2000/svg" viewBox="0 0 300 80" width="300" height="80">
    <!-- Icono -->
    <g transform="translate(10, 15) scale(2)">
        <path d="M12 2a10 10 0 1 1 0 20 10 10 0 0 1 0-20zm0 2a8 8 0 1 0 0 16 8 8 0 0 0 0-16zm3.5 4a.5.5 0 1 1 0 1 .5.5 0 0 1 0-1zM12 6c.5 0 1 .2 1.4.6l2 2c.8.8.8 2 0 2.8l-2 2c-.4.4-.9.6-1.4.6s-1-.2-1.4-.6l-2-2a2 2 0 0 1 0-2.8l2-2c.4-.4.9-.6 1.4-.6z"/>
    </g>
    
    <!-- Texto -->
    <text x="80" y="55" 
          font-family="Bebas Neue, sans-serif" 
          font-size="36"
          font-weight="bold"
          fill="#B10B1F">
        INFORMATIVOINFO
    </text>
</svg>